<?xml version="1.0" encoding="utf-8"?>
<!-- Generator: Adobe Illustrator 18.1.1, SVG Export Plug-In . SVG Version: 6.00 Build 0)  -->
<svg version="1.1" id="Layer_1" xmlns="http://www.w3.org/2000/svg" xmlns:xlink="http://www.w3.org/1999/xlink" x="0px" y="0px"
	 viewBox="0 0 84 85.3" enable-background="new 0 0 84 85.3" xml:space="preserve">
<g>
	<path fill="#FFFFFF" d="M54.5,43h-8.7v9.8c0,4.5,1.6,7.6,4.3,9.8l0-1.4c-2-2.3-2.3-5-2.3-7.2v-2.6H51v11.2c0,4.1-1.1,9.3-8.4,12.6
		c-6.9-3.1-8.3-8-8.4-11.9c3.3-2.2,5.2-5.5,5.2-10.5v-1.4h3.3h2.1v-2h-2.1h-3.3v0h-2v0h-5.2v11.8c0,0.4,0,0.8,0,1.2v0
		c0.8-0.5,1.4-1.1,2-1.6l0,0v-9.3h3.2l0,0V54c0,3.4-0.6,7.6-6.7,10.3c-6.1-2.7-6.7-6.9-6.7-10.3v-9h6.7h6.7v3.5h2V43h-8.7h-8.7v9.8
		c0,6.6,3.3,10.2,8.7,12.3c0.6-0.2,1.2-0.5,1.7-0.8c0.9,6,4.7,9.5,10.2,11.6c5.6-2.1,9.3-5.6,10.2-11.6c0.5,0.3,1.1,0.5,1.6,0.7
		c5.4-2,8.7-5.7,8.7-12.3V43H54.5z M61.2,54c0,3.4-0.6,7.6-6.7,10.3c-0.6-0.2-1.1-0.5-1.5-0.8c0.1-0.8,0.1-1.5,0.1-2.4V49.4h-5.3V45
		h6.7h6.7V54z"/>
	<path fill="#FFFFFF" d="M25.9,37.6v-0.4c0.3-0.2,0.5-0.3,0.6-0.4c0.1,0,0.1-0.1,0.1-0.2c0-0.1,0.1-0.5,0.1-0.9c0-0.7,0-1.1,0-1.3
		v-4.2c0-0.7,0-1.4,0-2.1c0-0.5-0.1-0.8-0.1-0.9c-0.1-0.1-0.2-0.2-0.3-0.2c-0.1,0-0.5-0.1-1.2-0.1v-0.5c1.3,0,2.1,0,2.4,0
		c0.3,0,1.1,0,2.3,0v0.5c-0.6,0-1,0-1.2,0.1c-0.1,0-0.2,0.1-0.3,0.2c-0.1,0.1-0.1,0.4-0.1,0.8c0,0.1,0,0.8,0,2.2v5.2
		c0,0.5,0,1,0,1.3c0.6,0,0.7,0,1.3,0c1.5,0,2.7-0.1,3.3-0.3c0.1-0.2,0.1-0.3,0.2-0.5l0.3-1.3H34c-0.1,0.8-0.2,1.7-0.3,2.7
		c-0.2,0-0.4,0.1-0.5,0.1c-0.3,0-0.7,0-1.3,0l-4.3,0C26.9,37.6,26.4,37.6,25.9,37.6z"/>
	<path fill="#FFFFFF" d="M39.7,37.1v0.5c-1.1,0-1.9,0-2.3,0l-2.5,0v-0.5c0.6,0,1,0,1.1-0.1c0.1,0,0.2-0.1,0.3-0.2
		c0.1-0.1,0.1-0.4,0.1-0.7c0-0.1,0-0.8,0-2.2v-3.6c0-0.7,0-1.4,0-2.1c0-0.5-0.1-0.8-0.1-0.9c-0.1-0.1-0.2-0.2-0.3-0.2
		c-0.1,0-0.5-0.1-1.1-0.1v-0.5c1,0,1.8,0,2.4,0c0.5,0,1.3,0,2.4,0v0.5c-0.6,0-1,0-1.2,0.1c-0.1,0-0.2,0.1-0.3,0.2
		c-0.1,0.1-0.1,0.4-0.1,0.8c0,0.1,0,0.8,0,2.2v3.6c0,0.7,0,1.4,0,2.1c0,0.5,0.1,0.8,0.1,0.9c0.1,0.1,0.2,0.2,0.3,0.2
		C38.7,37.1,39.1,37.1,39.7,37.1z M38.2,28.1c0,0.1,0,0.8,0,2.2v3.6"/>
	<path fill="#FFFFFF" d="M41.5,37.6v-0.5c0.6,0,0.9,0,1.1-0.1c0.1,0,0.1-0.1,0.2-0.1c0.1-0.1,0.1-0.4,0.1-0.8c0-0.7,0-1.3,0-1.8V28
		c0-0.2,0-0.3,0-0.3c0-0.1-0.1-0.2-0.3-0.3c-0.1-0.1-0.2-0.1-0.3-0.2c-0.1,0-0.4,0-0.8,0v-0.5c0.9,0,1.5,0,1.8,0c0.4,0,0.8,0,1.2,0
		c0.5,0.6,0.8,1,1,1.3l1.7,2l2.4,2.8c0.8,0.9,1.4,1.6,1.9,2.1c0.3,0.3,0.5,0.6,0.8,0.8v-5.7c0-0.5,0-1.1,0-1.8
		c0-0.4-0.1-0.7-0.1-0.8c0-0.1-0.1-0.1-0.2-0.2c-0.2-0.1-0.6-0.1-1.1-0.1v-0.5c0.6,0,1.3,0,1.9,0c0.6,0,1.2,0,1.7,0v0.5
		c-0.6,0-0.9,0-1.1,0.1c-0.1,0-0.1,0.1-0.2,0.2c-0.1,0.1-0.1,0.4-0.1,0.8c0,0.7,0,1.3,0,1.8v3.7c0,0.8,0,2.2,0,4.2l-0.8,0l-0.2-0.2
		c0,0-0.1-0.1-0.1-0.1c0,0-0.1-0.1-0.3-0.3c-0.4-0.5-0.8-0.9-1-1.1l-1-1.3l-5.7-6.7v6c0,0.5,0,1.1,0.1,1.8c0,0.4,0.1,0.7,0.1,0.8
		c0,0.1,0.1,0.1,0.2,0.2c0.2,0.1,0.6,0.1,1.1,0.1v0.5c-0.5,0-1,0-1.6,0C42.9,37.6,42.3,37.6,41.5,37.6z"/>
	<path fill="#FFFFFF" d="M60.4,37.1v0.5c-1.1,0-1.9,0-2.3,0l-2.5,0v-0.5c0.6,0,1,0,1.2-0.1c0.1,0,0.2-0.1,0.3-0.2
		c0.1-0.1,0.1-0.4,0.1-0.7c0-0.1,0-0.8,0-2.2v-3.6c0-0.7,0-1.4,0-2.1c0-0.5-0.1-0.8-0.1-0.9c-0.1-0.1-0.2-0.2-0.3-0.2
		c-0.1,0-0.5-0.1-1.2-0.1v-0.5c1,0,1.8,0,2.4,0c0.5,0,1.3,0,2.4,0v0.5c-0.6,0-1,0-1.2,0.1c-0.1,0-0.2,0.1-0.3,0.2
		c-0.1,0.1-0.1,0.4-0.1,0.8c0,0.1,0,0.8,0,2.2v3.6c0,0.7,0,1.4,0,2.1c0,0.5,0.1,0.8,0.1,0.9c0.1,0.1,0.2,0.2,0.3,0.2
		C59.4,37.1,59.8,37.1,60.4,37.1z"/>
	<path fill="#FFFFFF" d="M72,36.3L71.7,37c-0.6,0.3-1.3,0.5-1.9,0.7c-0.6,0.1-1.3,0.2-2,0.2c-0.8,0-1.6-0.1-2.3-0.3
		c-0.7-0.2-1.3-0.5-1.9-0.9c-0.5-0.4-1-0.8-1.3-1.3c-0.3-0.5-0.6-1-0.8-1.5c-0.2-0.5-0.3-1.1-0.3-1.8c0-1.6,0.6-3,1.8-4.1
		c1.2-1.1,2.8-1.6,4.9-1.6c0.5,0,0.9,0,1.4,0.1c0.4,0.1,0.9,0.2,1.5,0.3c0.6,0.2,1,0.2,1.1,0.3c-0.1,0.3-0.2,0.6-0.3,0.8
		c-0.1,0.4-0.1,0.9-0.2,1.5h-0.5l0-0.9c-0.1-0.5-0.3-0.9-0.9-1.1c-0.5-0.2-1.3-0.4-2.3-0.4c-0.8,0-1.4,0.1-2,0.3
		c-0.5,0.2-1,0.5-1.4,0.8c-0.4,0.4-0.7,0.9-1,1.5c-0.3,0.6-0.4,1.3-0.4,2.2c0,1.6,0.5,2.8,1.5,3.8c1,0.9,2.3,1.4,4,1.4
		c0.7,0,1.4-0.1,2.1-0.3c0.4-0.1,0.9-0.3,1.3-0.6L72,36.3z"/>
	<path fill="#FFFFFF" d="M23.9,36.3L23.5,37c-0.6,0.3-1.3,0.5-1.9,0.7c-0.6,0.1-1.3,0.2-2,0.2c-0.8,0-1.6-0.1-2.3-0.3
		c-0.7-0.2-1.3-0.5-1.9-0.9c-0.5-0.4-1-0.8-1.3-1.3c-0.3-0.5-0.6-1-0.8-1.5c-0.2-0.5-0.3-1.1-0.3-1.8c0-1.6,0.6-3,1.8-4.1
		c1.2-1.1,2.9-1.6,4.9-1.6c0.5,0,0.9,0,1.4,0.1c0.4,0.1,0.9,0.2,1.5,0.3c0.6,0.2,1,0.2,1.1,0.3c-0.1,0.3-0.2,0.6-0.3,0.8
		c-0.1,0.4-0.1,0.9-0.2,1.5h-0.5l0-0.9c-0.1-0.5-0.3-0.9-0.9-1.1c-0.5-0.2-1.3-0.4-2.3-0.4c-0.8,0-1.4,0.1-2,0.3
		c-0.5,0.2-1,0.5-1.4,0.8c-0.4,0.4-0.7,0.9-1,1.5c-0.3,0.6-0.4,1.3-0.4,2.2c0,1.6,0.5,2.8,1.5,3.8c1,0.9,2.3,1.4,4,1.4
		c0.7,0,1.4-0.1,2.1-0.3c0.4-0.1,0.9-0.3,1.3-0.6L23.9,36.3z"/>
	<path fill="#FFFFFF" d="M17.7,12.4v-0.5c0.6,0,1.1,0.1,1.6,0.1c0.5,0,1,0,1.5-0.1c0.5,1,0.9,1.9,1.3,2.7l3.1,6l2.8-5.5
		c0.8-1.5,1.3-2.6,1.5-3.2c0.6,0,1.1,0.1,1.4,0.1c0.4,0,0.9,0,1.8-0.1v0.5c-0.6,0-1,0-1.2,0.1c-0.1,0-0.2,0.1-0.3,0.2
		c-0.1,0.1-0.1,0.4-0.1,0.7c0,0.1,0,0.8,0,2.2v3.6c0,0.7,0,1.4,0,2c0,0.5,0.1,0.8,0.1,0.9c0.1,0.1,0.2,0.2,0.3,0.2
		c0.1,0,0.5,0.1,1.2,0.1v0.5c-1.1,0-1.9-0.1-2.3-0.1c-0.4,0-1.2,0-2.4,0.1v-0.5c0.6,0,1,0,1.2-0.1c0.1,0,0.2-0.1,0.3-0.2
		c0.1-0.1,0.1-0.4,0.1-0.7c0-0.1,0-0.8,0-2.2v-5.7l-2.8,5.6c-0.4,0.9-0.8,1.6-1,2.1c-0.2,0.4-0.5,1-0.8,1.8h-0.3
		c-0.1-0.2-0.1-0.4-0.2-0.5L24,21.4l-3.9-7.7v5.4c0,0.7,0,1.4,0.1,2.1c0,0.5,0.1,0.8,0.1,0.9c0.1,0.1,0.2,0.2,0.3,0.2
		c0.1,0,0.5,0.1,1.2,0.1v0.5l-2-0.1l-2,0.1v-0.5c0.6,0,1,0,1.2-0.1c0.1,0,0.2-0.1,0.3-0.2c0.1-0.1,0.1-0.4,0.1-0.7
		c0-0.1,0-0.8,0-2.2v-3.6c0-0.7,0-1.4,0-2c0-0.5-0.1-0.8-0.1-0.9c-0.1-0.1-0.2-0.2-0.3-0.2C18.8,12.5,18.4,12.4,17.7,12.4z"/>
	<path fill="#FFFFFF" d="M35,22.8c0.5,0,1.1,0,2.1,0.1v-0.5c-0.5,0-0.9,0-1.1-0.1c-0.1,0-0.2-0.1-0.3-0.1c0,0-0.1-0.1-0.1-0.2
		c0-0.2,0.1-0.4,0.2-0.8l0.9-2h4.7l1,2.4c0.1,0.2,0.1,0.3,0.1,0.4c0,0.1,0,0.1-0.1,0.2c0,0-0.1,0.1-0.3,0.1c-0.1,0-0.5,0-1.1,0.1
		v0.5l2.6-0.1c0.3,0,0.9,0,1.8,0.1v-0.5c-0.4,0-0.7,0-0.8-0.1c-0.1-0.1-0.2-0.2-0.3-0.4c-0.2-0.3-0.6-1.1-1.1-2.4l-3.5-7.8h-0.5
		c-0.7,1.7-1.2,2.7-1.4,3.2l-2,4.4c-0.6,1.3-1,2-1.1,2.2c-0.2,0.3-0.3,0.5-0.4,0.6c-0.1,0.1-0.2,0.1-0.3,0.2c-0.1,0-0.4,0-0.8,0.1
		v0.5C33.9,22.9,34.5,22.8,35,22.8z M39.2,13.9l2,4.7h-4.1L39.2,13.9z"/>
	<path fill="#FFFFFF" d="M52.3,13.6c0.3-0.5,0.5-0.8,0.5-0.9c0-0.1,0-0.2-0.2-0.2c-0.1,0-0.6-0.1-1.2-0.1v-0.5c1,0,1.6,0,2.2,0
		c0.5,0,0.8,0,1.9,0v0.5c-0.6,0-0.9,0-1,0.1c-0.2,0-0.3,0.1-0.4,0.2c-0.1,0.1-0.3,0.4-0.6,0.8l-2.4,3.4c-0.5,0.7-0.7,1.2-0.8,1.3
		c-0.1,0.2-0.1,0.3-0.1,0.5v0.6c0,0.7,0,1.4,0,2c0,0.5,0.1,0.8,0.1,0.9c0.1,0.1,0.2,0.2,0.3,0.2c0.1,0,0.5,0.1,1.1,0.1v0.5
		c-0.9,0-1.6-0.1-2.3-0.1c-0.6,0-1.4,0-2.4,0.1v-0.5c0.6,0,1,0,1.2-0.1c0.1,0,0.2-0.1,0.3-0.2c0.1-0.1,0.1-0.4,0.1-0.7
		c0-0.1,0-0.8,0-2.2v-0.9c-0.1-0.2-0.2-0.4-0.3-0.6c-0.1-0.1-0.4-0.6-0.8-1.3l-2.1-2.9c-0.3-0.4-0.4-0.6-0.6-0.8
		c-0.1-0.1-0.2-0.1-0.4-0.2c-0.2,0-0.4-0.1-1-0.1v-0.5c1.1,0,1.4,0,1.9,0c0.6,0,2,0,3,0v0.5c-0.6,0-1.2,0-1.3,0.1
		c-0.1,0-0.2,0.1-0.2,0.2c0,0.1,0.1,0.4,0.4,0.9l2.4,3.9L52.3,13.6z"/>
	<path fill="#FFFFFF" d="M57.2,14.5c0.3-0.7,0.8-1.2,1.5-1.6c0.6-0.4,1.4-0.5,2.3-0.5c0.6,0,1.1,0.1,1.7,0.3
		c0.5,0.2,0.9,0.4,1.2,0.6c0.3,0.3,0.6,0.6,0.8,0.9c0.2,0.3,0.4,0.7,0.6,1.1c0.2,0.7,0.3,1.4,0.3,2.3c0,1-0.2,1.8-0.5,2.5
		c-0.3,0.7-0.8,1.3-1.4,1.7c-0.6,0.4-1.4,0.6-2.3,0.6c-0.6,0-1.2-0.1-1.7-0.3c-0.5-0.2-1-0.5-1.4-0.9c-0.4-0.4-0.8-0.9-1-1.6
		c-0.2-0.4-0.3-0.8-0.4-1.3c-0.1-0.5-0.2-1-0.2-1.5C56.7,15.9,56.9,15.1,57.2,14.5z M55.4,19.6c0.3,0.7,0.7,1.4,1.2,1.9
		c0.5,0.5,1.1,0.9,1.9,1.2c0.7,0.3,1.5,0.4,2.4,0.4c1.9,0,3.4-0.6,4.6-1.7c1.2-1.2,1.8-2.6,1.8-4.3c0-0.5-0.1-1.1-0.2-1.5
		c-0.1-0.5-0.3-0.9-0.5-1.2c-0.3-0.5-0.6-0.9-1.1-1.3c-0.5-0.4-1.1-0.7-1.8-0.9c-0.7-0.2-1.5-0.4-2.4-0.4c-1,0-1.8,0.1-2.6,0.4
		c-0.8,0.3-1.4,0.7-2,1.2c-0.6,0.6-1,1.2-1.3,1.9c-0.3,0.7-0.4,1.4-0.4,2.3C55,18.2,55.2,18.9,55.4,19.6z"/>
</g>
</svg>
