<svg xmlns="http://www.w3.org/2000/svg" data-name="Layer 1" viewBox="0 0 100 100" x="0px" y="0px"><title>fabric_pattern-100</title><polygon points="36.76 84.61 47.15 95 49.72 95 39.33 84.61 36.76 84.61"></polygon><polygon points="22.31 84.61 22.31 95 34.34 95 32.69 93.36 32.67 93.33 32.67 90.78 32.69 90.8 36.89 95 39.46 95 32.69 88.23 32.67 88.21 32.67 85.65 32.69 85.67 42.02 95 44.59 95 34.21 84.61 22.31 84.61"></polygon><polygon points="15.38 60.67 5 50.29 5 52.85 15.38 63.24 15.38 60.67"></polygon><polygon points="41.89 84.61 52.27 95 54.85 95 44.46 84.61 41.89 84.61"></polygon><rect x="5" y="84.62" width="10.38" height="10.38"></rect><polygon points="15.38 65.79 5 55.41 5 57.98 14.33 67.31 11.78 67.31 5 60.53 5 63.09 9.21 67.31 6.66 67.31 5 65.65 5 77.69 15.38 77.69 15.38 65.79"></polygon><polygon points="70.77 84.61 70.77 82.73 70.77 80.16 70.77 77.69 70.77 77.6 70.86 77.69 73.43 77.69 70.77 75.03 70.77 72.48 75.98 77.69 78.56 77.69 70.77 69.9 70.77 67.35 81.11 77.69 83.69 77.69 73.3 67.31 70.66 67.31 56.89 53.54 56.89 56.1 68.1 67.31 65.52 67.31 56.89 58.67 56.89 61.23 62.97 67.31 60.39 67.31 56.89 63.81 56.89 66.36 57.83 67.31 55.34 67.31 56.92 68.89 56.92 71.44 52.79 67.31 50.22 67.31 56.92 74.01 56.92 76.57 47.66 67.31 45.09 67.31 55.48 77.69 56.92 77.69 56.92 79.14 56.92 81.69 56.92 84.27 56.92 84.61 56.92 86.82 54.72 84.61 52.14 84.61 56.92 89.39 56.92 91.95 49.59 84.61 47.02 84.61 56.92 94.52 56.92 95 70.77 95 70.77 92.99 72.78 95 75.36 95 70.77 90.41 70.77 87.86 77.91 95 80.48 95 70.77 85.29 70.77 84.61"></polygon><polygon points="94.98 68.48 93.81 67.31 91.24 67.31 94.98 71.05 94.98 73.6 88.68 67.31 86.11 67.31 94.98 76.18 94.98 77.69 95 77.69 95 67.31 94.98 67.31 94.98 68.48"></polygon><polygon points="94.98 86.43 94.98 88.99 90.61 84.61 88.03 84.61 94.98 91.56 94.98 94.11 85.48 84.61 82.91 84.61 93.29 95 95 95 95 84.61 93.16 84.61 94.98 86.43"></polygon><polygon points="72.65 84.61 83.04 95 85.61 95 75.23 84.61 72.65 84.61"></polygon><polygon points="77.78 84.61 88.17 95 90.74 95 80.35 84.61 77.78 84.61"></polygon><polygon points="70.75 5.8 69.95 5 67.39 5 70.75 8.36 70.75 5.8"></polygon><polygon points="32.69 6.3 31.39 5 28.82 5 32.69 8.87 32.69 6.3"></polygon><polygon points="70.75 16.07 59.68 5 57.12 5 70.75 18.63 70.75 16.07"></polygon><polygon points="32.69 11.42 26.27 5 23.7 5 32.69 13.99 32.69 11.42"></polygon><polygon points="15.38 5 13.46 5 15.38 6.92 15.38 5"></polygon><polygon points="70.75 10.94 64.81 5 62.26 5 70.75 13.49 70.75 10.94"></polygon><polygon points="81.35 29.22 95 42.88 95 40.32 83.9 29.22 81.35 29.22"></polygon><polygon points="15.38 19.72 5 9.33 5 11.9 15.38 22.28 15.38 19.72"></polygon><polygon points="15.38 9.48 10.91 5 8.34 5 15.38 12.04 15.38 9.48"></polygon><polygon points="15.38 53 15.38 50.44 8.03 43.08 10.58 43.08 15.38 47.88 15.38 45.31 13.15 43.08 22.31 43.08 22.31 44.56 32.69 54.95 32.69 52.38 23.39 43.08 25.94 43.08 32.69 49.83 32.69 47.26 28.51 43.08 31.06 43.08 32.69 44.71 32.69 42.17 33.61 43.09 36.17 43.09 32.69 39.61 32.69 37.03 38.74 43.09 41.3 43.09 32.69 34.48 32.69 31.9 43.88 43.09 46.43 43.09 32.69 29.34 32.69 26.78 22.31 16.4 22.31 18.96 32.57 29.23 30.02 29.23 22.31 21.52 22.31 24.09 27.45 29.23 24.9 29.23 22.31 26.64 22.31 29.2 22.33 29.23 22.31 29.23 19.78 29.23 17.21 29.23 15.38 29.23 14.66 29.23 5 19.57 5 22.14 12.09 29.23 9.54 29.23 5 24.69 5 27.26 6.97 29.23 5 29.23 5 43.08 5.46 43.08 15.38 53"></polygon><polygon points="15.38 24.84 5 14.45 5 17.02 15.38 27.4 15.38 24.84"></polygon><polygon points="15.38 14.6 5.79 5 5 5 5 6.78 15.38 17.16 15.38 14.6"></polygon><polygon points="15.38 55.55 5 45.17 5 47.73 15.38 58.12 15.38 55.55"></polygon><polygon points="39.96 67.31 50.35 77.69 52.92 77.69 42.54 67.31 39.96 67.31"></polygon><polygon points="40.28 29.22 54.14 43.09 56.7 43.09 42.84 29.22 40.28 29.22"></polygon><polygon points="56.89 50.96 70.75 64.83 70.75 62.27 56.89 48.41 56.89 50.96"></polygon><polygon points="35.15 29.22 49.01 43.09 51.57 43.09 37.71 29.22 35.15 29.22"></polygon><polygon points="76.21 29.22 90.08 43.09 92.63 43.09 78.77 29.22 76.21 29.22"></polygon><polygon points="71.08 29.22 84.94 43.09 87.5 43.09 73.64 29.22 71.08 29.22"></polygon><polygon points="86.48 29.22 95 37.74 95 35.19 89.04 29.22 86.48 29.22"></polygon><polygon points="50.55 29.22 70.75 49.43 70.75 46.87 53.1 29.22 50.55 29.22"></polygon><polygon points="56.89 29.22 55.68 29.22 70.75 44.29 70.75 43.09 72.1 43.09 56.89 27.88 56.89 29.22"></polygon><polygon points="82.37 43.09 56.89 17.61 56.89 20.17 79.81 43.09 82.37 43.09"></polygon><polygon points="56.89 22.74 56.89 25.3 74.68 43.09 77.23 43.09 56.89 22.74"></polygon><polygon points="45.41 29.22 70.75 54.56 70.75 52 47.97 29.22 45.41 29.22"></polygon><polygon points="80.98 67.31 91.37 77.69 93.94 77.69 83.56 67.31 80.98 67.31"></polygon><polygon points="56.89 45.83 70.75 59.69 70.75 57.14 56.89 43.27 56.89 45.83"></polygon><polygon points="22.31 13.85 32.69 24.23 32.69 21.66 22.31 11.28 22.31 13.85"></polygon><polygon points="22.31 8.72 32.69 19.11 32.69 16.54 22.31 6.16 22.31 8.72"></polygon><polygon points="70.75 26.34 56.89 12.47 56.89 15.03 70.75 28.89 70.75 26.34"></polygon><polygon points="75.86 67.31 86.24 77.69 88.81 77.69 78.43 67.31 75.86 67.31"></polygon><polygon points="91.61 29.22 95 32.61 95 30.05 94.17 29.22 91.61 29.22"></polygon><polygon points="32.69 62.62 22.31 52.24 22.31 54.8 32.69 65.19 32.69 62.62"></polygon><polygon points="32.69 57.5 22.31 47.12 22.31 49.68 32.69 60.07 32.69 57.5"></polygon><polygon points="32.69 67.31 32.26 67.31 22.31 57.36 22.31 59.92 29.69 67.31 27.14 67.31 22.31 62.48 22.31 65.04 24.57 67.31 22.31 67.31 22.31 77.69 32.67 77.69 32.67 75.4 32.69 75.42 34.97 77.69 37.54 77.69 32.69 72.85 32.67 72.83 32.67 70.27 32.69 70.29 40.09 77.69 42.67 77.69 32.69 67.72 32.69 67.31"></polygon><polygon points="70.75 21.2 56.89 7.34 56.89 9.9 70.75 23.76 70.75 21.2"></polygon><polygon points="34.84 67.31 45.22 77.69 47.79 77.69 37.41 67.31 34.84 67.31"></polygon></svg>