<?xml version="1.0" standalone="no"?>
<!DOCTYPE svg PUBLIC "-//W3C//DTD SVG 20010904//EN"
 "http://www.w3.org/TR/2001/REC-SVG-20010904/DTD/svg10.dtd">
<svg version="1.0" xmlns="http://www.w3.org/2000/svg"
 width="700.000000pt" height="700.000000pt" viewBox="0 0 700.000000 700.000000"
 preserveAspectRatio="xMidYMid meet">
<metadata>
Created by potrace 1.11, written by Peter Selinger 2001-2013
</metadata>
<g transform="translate(0.000000,700.000000) scale(0.100000,-0.100000)"
fill="#000000" stroke="none">
<path d="M4104 5366 c-17 -22 -86 -113 -153 -201 -67 -88 -131 -171 -141 -185
-10 -14 -67 -88 -126 -165 -58 -77 -164 -216 -235 -310 -277 -365 -404 -533
-461 -607 l-60 -77 23 -33 c13 -18 75 -100 139 -183 63 -82 154 -202 202 -265
136 -178 289 -379 429 -562 l128 -167 -69 -53 c-37 -29 -79 -61 -92 -70 -12
-9 -95 -71 -183 -137 -88 -67 -162 -121 -165 -120 -3 0 -81 102 -175 227 -93
124 -178 235 -187 247 -9 11 -157 207 -327 435 -171 228 -316 423 -323 432 -7
9 -103 138 -213 287 -110 149 -203 271 -206 271 -3 0 -21 -21 -39 -47 -19 -27
-37 -50 -40 -53 -3 -3 -41 -52 -83 -110 -43 -58 -88 -118 -100 -134 -27 -35
-521 -693 -541 -721 -46 -61 -519 -692 -529 -705 -7 -8 -23 -31 -37 -50 -14
-19 -30 -42 -37 -50 -7 -8 -122 -161 -256 -340 l-244 -325 1749 -3 c961 -1
2535 -1 3496 0 l1749 3 -1428 1904 c-785 1047 -1429 1904 -1431 1906 -2 2 -17
-16 -34 -39z"/>
</g>
</svg>
