<?xml version="1.0" standalone="no"?>
<!DOCTYPE svg PUBLIC "-//W3C//DTD SVG 20010904//EN"
 "http://www.w3.org/TR/2001/REC-SVG-20010904/DTD/svg10.dtd">
<svg version="1.0" xmlns="http://www.w3.org/2000/svg"
 width="172.000000pt" height="172.000000pt" viewBox="0 0 172.000000 172.000000"
 preserveAspectRatio="xMidYMid meet">
<metadata>
Created by potrace 1.11, written by Peter Selinger 2001-2013
</metadata>
<g transform="translate(0.000000,172.000000) scale(0.100000,-0.100000)"
fill="#000000" stroke="none">
<path d="M0 1298 c0 -274 10 -342 61 -439 42 -78 129 -158 224 -205 74 -37 76
-37 109 -21 l34 16 26 -83 c32 -102 84 -185 164 -257 63 -56 206 -139 243
-139 27 0 145 61 205 106 106 80 168 168 205 295 l22 76 29 -15 c26 -13 34
-12 73 2 109 42 221 139 269 235 48 93 56 155 56 424 l0 247 -365 0 -366 0 2
-242 c2 -332 21 -411 130 -530 l48 -53 1 36 c0 22 -9 47 -25 69 -42 57 -63
136 -65 247 -3 135 -9 124 65 121 l65 -2 0 -272 c0 -149 -4 -296 -10 -325 -28
-152 -136 -285 -300 -370 l-40 -21 -67 38 c-131 73 -238 207 -263 331 -23 116
-25 109 49 183 104 103 149 221 151 387 l0 51 110 -1 110 -2 0 43 c0 33 -4 42
-17 43 -26 0 -453 1 -483 0 l-25 -1 0 -264 c0 -146 3 -267 6 -270 3 -3 23 9
43 27 l38 32 1 195 2 195 63 3 62 2 1 -37 c6 -201 -25 -305 -118 -395 -51 -50
-151 -108 -171 -101 -37 13 -149 94 -173 125 -35 44 -64 103 -79 158 -12 40
-22 476 -13 505 4 11 537 14 548 3 4 -3 7 -35 8 -70 l2 -63 41 -1 41 -1 2 113
1 114 -365 0 -365 0 0 -242z m1625 153 c15 -1 11 -441 -4 -504 -25 -105 -87
-189 -185 -251 -70 -44 -79 -47 -110 -28 l-27 17 1 293 c0 230 -2 292 -12 293
-7 0 -57 0 -110 0 l-98 0 -1 52 c-1 61 2 120 6 127 3 4 504 5 540 1z"/>
</g>
</svg>
