<?xml version="1.0" encoding="utf-8"?>
<!-- Generator: Adobe Illustrator 18.1.1, SVG Export Plug-In . SVG Version: 6.00 Build 0)  -->
<svg version="1.1" id="Layer_1" xmlns="http://www.w3.org/2000/svg" xmlns:xlink="http://www.w3.org/1999/xlink" x="0px" y="0px"
	 viewBox="0 0 80.9 84.8" enable-background="new 0 0 80.9 84.8" xml:space="preserve">
<g>
	<path fill="#005DAC" d="M53.1,41.5h-8.7v9.8c0,4.5,1.6,7.6,4.3,9.8l0-1.4c-2-2.3-2.3-5-2.3-7.2v-2.6h3.3v11.2
		c0,4.1-1.1,9.3-8.4,12.6c-6.9-3.1-8.3-8-8.4-11.9c3.3-2.2,5.2-5.5,5.2-10.5v-1.4h3.3h2.1v-2h-2.1h-3.3v0h-2v0h-5.2v11.8
		c0,0.4,0,0.8,0,1.2v0c0.8-0.5,1.4-1.1,2-1.6l0,0v-9.3h3.2l0,0v2.6c0,3.4-0.6,7.6-6.7,10.3c-6.1-2.7-6.7-6.9-6.7-10.3v-9h6.7h6.7
		v3.5h2v-5.5h-8.7h-8.7v9.8c0,6.6,3.3,10.2,8.7,12.3c0.6-0.2,1.2-0.5,1.7-0.8c0.9,6,4.7,9.5,10.2,11.6c5.6-2.1,9.3-5.6,10.2-11.6
		c0.5,0.3,1.1,0.5,1.6,0.7c5.4-2,8.7-5.7,8.7-12.3v-9.8H53.1z M59.8,52.5c0,3.4-0.6,7.6-6.7,10.3c-0.6-0.2-1.1-0.5-1.5-0.8
		c0.1-0.8,0.1-1.5,0.1-2.4V47.9h-5.3v-4.4h6.7h6.7V52.5z"/>
	<path d="M24.5,36.1v-0.4c0.3-0.2,0.5-0.3,0.6-0.4c0.1,0,0.1-0.1,0.1-0.2c0-0.1,0.1-0.5,0.1-0.9c0-0.7,0-1.1,0-1.3v-4.2
		c0-0.7,0-1.4,0-2.1c0-0.5-0.1-0.8-0.1-0.9c-0.1-0.1-0.2-0.2-0.3-0.2c-0.1,0-0.5-0.1-1.2-0.1v-0.5c1.3,0,2.1,0,2.4,0
		c0.3,0,1.1,0,2.3,0v0.5c-0.6,0-1,0-1.2,0.1c-0.1,0-0.2,0.1-0.3,0.2c-0.1,0.1-0.1,0.4-0.1,0.8c0,0.1,0,0.8,0,2.2V34c0,0.5,0,1,0,1.3
		c0.6,0,0.7,0,1.3,0c1.5,0,2.7-0.1,3.3-0.3c0.1-0.2,0.1-0.3,0.2-0.5l0.3-1.3h0.5c-0.1,0.8-0.2,1.7-0.3,2.7c-0.2,0-0.4,0.1-0.5,0.1
		c-0.3,0-0.7,0-1.3,0l-4.3,0C25.5,36.1,25,36.1,24.5,36.1z"/>
	<path d="M38.3,35.6v0.5c-1.1,0-1.9,0-2.3,0l-2.5,0v-0.5c0.6,0,1,0,1.1-0.1c0.1,0,0.2-0.1,0.3-0.2c0.1-0.1,0.1-0.4,0.1-0.7
		c0-0.1,0-0.8,0-2.2v-3.6c0-0.7,0-1.4,0-2.1c0-0.5-0.1-0.8-0.1-0.9c-0.1-0.1-0.2-0.2-0.3-0.2c-0.1,0-0.5-0.1-1.1-0.1v-0.5
		c1,0,1.8,0,2.4,0c0.5,0,1.3,0,2.4,0v0.5c-0.6,0-1,0-1.2,0.1c-0.1,0-0.2,0.1-0.3,0.2c-0.1,0.1-0.1,0.4-0.1,0.8c0,0.1,0,0.8,0,2.2
		v3.6c0,0.7,0,1.4,0,2.1c0,0.5,0.1,0.8,0.1,0.9c0.1,0.1,0.2,0.2,0.3,0.2C37.3,35.6,37.7,35.6,38.3,35.6z M36.8,26.6
		c0,0.1,0,0.8,0,2.2v3.6"/>
	<path d="M40.1,36.1v-0.5c0.6,0,0.9,0,1.1-0.1c0.1,0,0.1-0.1,0.2-0.1c0.1-0.1,0.1-0.4,0.1-0.8c0-0.7,0-1.3,0-1.8v-6.3
		c0-0.2,0-0.3,0-0.3c0-0.1-0.1-0.2-0.3-0.3c-0.1-0.1-0.2-0.1-0.3-0.2c-0.1,0-0.4,0-0.8,0v-0.5c0.9,0,1.5,0,1.8,0c0.4,0,0.8,0,1.2,0
		c0.5,0.6,0.8,1,1,1.3l1.7,2l2.4,2.8c0.8,0.9,1.4,1.6,1.9,2.1c0.3,0.3,0.5,0.6,0.8,0.8v-5.7c0-0.5,0-1.1,0-1.8
		c0-0.4-0.1-0.7-0.1-0.8c0-0.1-0.1-0.1-0.2-0.2c-0.2-0.1-0.6-0.1-1.1-0.1v-0.5c0.6,0,1.3,0,1.9,0c0.6,0,1.2,0,1.7,0v0.5
		c-0.6,0-0.9,0-1.1,0.1c-0.1,0-0.1,0.1-0.2,0.2c-0.1,0.1-0.1,0.4-0.1,0.8c0,0.7,0,1.3,0,1.8v3.7c0,0.8,0,2.2,0,4.2l-0.8,0l-0.2-0.2
		c0,0-0.1-0.1-0.1-0.1c0,0-0.1-0.1-0.3-0.3c-0.4-0.5-0.8-0.9-1-1.1l-1-1.3l-5.7-6.7v6c0,0.5,0,1.1,0.1,1.8c0,0.4,0.1,0.7,0.1,0.8
		c0,0.1,0.1,0.1,0.2,0.2c0.2,0.1,0.6,0.1,1.1,0.1v0.5c-0.5,0-1,0-1.6,0C41.5,36.1,40.8,36.1,40.1,36.1z"/>
	<path d="M59,35.6v0.5c-1.1,0-1.9,0-2.3,0l-2.5,0v-0.5c0.6,0,1,0,1.2-0.1c0.1,0,0.2-0.1,0.3-0.2c0.1-0.1,0.1-0.4,0.1-0.7
		c0-0.1,0-0.8,0-2.2v-3.6c0-0.7,0-1.4,0-2.1c0-0.5-0.1-0.8-0.1-0.9c-0.1-0.1-0.2-0.2-0.3-0.2c-0.1,0-0.5-0.1-1.2-0.1v-0.5
		c1,0,1.8,0,2.4,0c0.5,0,1.3,0,2.4,0v0.5c-0.6,0-1,0-1.2,0.1c-0.1,0-0.2,0.1-0.3,0.2c-0.1,0.1-0.1,0.4-0.1,0.8c0,0.1,0,0.8,0,2.2
		v3.6c0,0.7,0,1.4,0,2.1c0,0.5,0.1,0.8,0.1,0.9c0.1,0.1,0.2,0.2,0.3,0.2C58,35.6,58.4,35.6,59,35.6z"/>
	<path d="M70.6,34.7l-0.3,0.7c-0.6,0.3-1.3,0.5-1.9,0.7c-0.6,0.1-1.3,0.2-2,0.2c-0.8,0-1.6-0.1-2.3-0.3c-0.7-0.2-1.3-0.5-1.9-0.9
		c-0.5-0.4-1-0.8-1.3-1.3c-0.3-0.5-0.6-1-0.8-1.5c-0.2-0.5-0.3-1.1-0.3-1.8c0-1.6,0.6-3,1.8-4.1c1.2-1.1,2.8-1.6,4.9-1.6
		c0.5,0,0.9,0,1.4,0.1c0.4,0.1,0.9,0.2,1.5,0.3c0.6,0.2,1,0.2,1.1,0.3c-0.1,0.3-0.2,0.6-0.3,0.8c-0.1,0.4-0.1,0.9-0.2,1.5h-0.5
		l0-0.9c-0.1-0.5-0.3-0.9-0.9-1.1c-0.5-0.2-1.3-0.4-2.3-0.4c-0.8,0-1.4,0.1-2,0.3c-0.5,0.2-1,0.5-1.4,0.8c-0.4,0.4-0.7,0.9-1,1.5
		c-0.3,0.6-0.4,1.3-0.4,2.2c0,1.6,0.5,2.8,1.5,3.8c1,0.9,2.3,1.4,4,1.4c0.7,0,1.4-0.1,2.1-0.3c0.4-0.1,0.9-0.3,1.3-0.6L70.6,34.7z"
		/>
	<path d="M22.5,34.7l-0.3,0.7c-0.6,0.3-1.3,0.5-1.9,0.7c-0.6,0.1-1.3,0.2-2,0.2c-0.8,0-1.6-0.1-2.3-0.3c-0.7-0.2-1.3-0.5-1.9-0.9
		c-0.5-0.4-1-0.8-1.3-1.3c-0.3-0.5-0.6-1-0.8-1.5c-0.2-0.5-0.3-1.1-0.3-1.8c0-1.6,0.6-3,1.8-4.1c1.2-1.1,2.9-1.6,4.9-1.6
		c0.5,0,0.9,0,1.4,0.1c0.4,0.1,0.9,0.2,1.5,0.3c0.6,0.2,1,0.2,1.1,0.3c-0.1,0.3-0.2,0.6-0.3,0.8c-0.1,0.4-0.1,0.9-0.2,1.5h-0.5
		l0-0.9c-0.1-0.5-0.3-0.9-0.9-1.1c-0.5-0.2-1.3-0.4-2.3-0.4c-0.8,0-1.4,0.1-2,0.3c-0.5,0.2-1,0.5-1.4,0.8c-0.4,0.4-0.7,0.9-1,1.5
		c-0.3,0.6-0.4,1.3-0.4,2.2c0,1.6,0.5,2.8,1.5,3.8c1,0.9,2.3,1.4,4,1.4c0.7,0,1.4-0.1,2.1-0.3c0.4-0.1,0.9-0.3,1.3-0.6L22.5,34.7z"
		/>
	<path d="M16.3,10.9v-0.5c0.6,0,1.1,0.1,1.6,0.1c0.5,0,1,0,1.5-0.1c0.5,1,0.9,1.9,1.3,2.7l3.1,6l2.8-5.5c0.8-1.5,1.3-2.6,1.5-3.2
		c0.6,0,1.1,0.1,1.4,0.1c0.4,0,0.9,0,1.8-0.1v0.5c-0.6,0-1,0-1.2,0.1c-0.1,0-0.2,0.1-0.3,0.2c-0.1,0.1-0.1,0.4-0.1,0.7
		c0,0.1,0,0.8,0,2.2v3.6c0,0.7,0,1.4,0,2c0,0.5,0.1,0.8,0.1,0.9c0.1,0.1,0.2,0.2,0.3,0.2c0.1,0,0.5,0.1,1.2,0.1v0.5
		c-1.1,0-1.9-0.1-2.3-0.1c-0.4,0-1.2,0-2.4,0.1v-0.5c0.6,0,1,0,1.2-0.1c0.1,0,0.2-0.1,0.3-0.2c0.1-0.1,0.1-0.4,0.1-0.7
		c0-0.1,0-0.8,0-2.2V12l-2.8,5.6c-0.4,0.9-0.8,1.6-1,2.1c-0.2,0.4-0.5,1-0.8,1.8h-0.3c-0.1-0.2-0.1-0.4-0.2-0.5l-0.6-1.1l-3.9-7.7
		v5.4c0,0.7,0,1.4,0.1,2.1c0,0.5,0.1,0.8,0.1,0.9c0.1,0.1,0.2,0.2,0.3,0.2c0.1,0,0.5,0.1,1.2,0.1v0.5l-2-0.1l-2,0.1v-0.5
		c0.6,0,1,0,1.2-0.1c0.1,0,0.2-0.1,0.3-0.2c0.1-0.1,0.1-0.4,0.1-0.7c0-0.1,0-0.8,0-2.2v-3.6c0-0.7,0-1.4,0-2c0-0.5-0.1-0.8-0.1-0.9
		c-0.1-0.1-0.2-0.2-0.3-0.2C17.4,10.9,17,10.9,16.3,10.9z"/>
	<path d="M33.6,21.3c0.5,0,1.1,0,2.1,0.1v-0.5c-0.5,0-0.9,0-1.1-0.1c-0.1,0-0.2-0.1-0.3-0.1c0,0-0.1-0.1-0.1-0.2
		c0-0.2,0.1-0.4,0.2-0.8l0.9-2h4.7l1,2.4c0.1,0.2,0.1,0.3,0.1,0.4c0,0.1,0,0.1-0.1,0.2c0,0-0.1,0.1-0.3,0.1c-0.1,0-0.5,0-1.1,0.1
		v0.5l2.6-0.1c0.3,0,0.9,0,1.8,0.1v-0.5c-0.4,0-0.7,0-0.8-0.1c-0.1-0.1-0.2-0.2-0.3-0.4c-0.2-0.3-0.6-1.1-1.1-2.4l-3.5-7.8h-0.5
		c-0.7,1.7-1.2,2.7-1.4,3.2l-2,4.4c-0.6,1.3-1,2-1.1,2.2c-0.2,0.3-0.3,0.5-0.4,0.6c-0.1,0.1-0.2,0.1-0.3,0.2c-0.1,0-0.4,0-0.8,0.1
		v0.5C32.5,21.3,33.1,21.3,33.6,21.3z M37.8,12.4l2,4.7h-4.1L37.8,12.4z"/>
	<path d="M50.9,12c0.3-0.5,0.5-0.8,0.5-0.9c0-0.1,0-0.2-0.2-0.2c-0.1,0-0.6-0.1-1.2-0.1v-0.5c1,0,1.6,0,2.2,0c0.5,0,0.8,0,1.9,0v0.5
		c-0.6,0-0.9,0-1,0.1c-0.2,0-0.3,0.1-0.4,0.2c-0.1,0.1-0.3,0.4-0.6,0.8l-2.4,3.4c-0.5,0.7-0.7,1.2-0.8,1.3c-0.1,0.2-0.1,0.3-0.1,0.5
		v0.6c0,0.7,0,1.4,0,2c0,0.5,0.1,0.8,0.1,0.9c0.1,0.1,0.2,0.2,0.3,0.2c0.1,0,0.5,0.1,1.1,0.1v0.5c-0.9,0-1.6-0.1-2.3-0.1
		c-0.6,0-1.4,0-2.4,0.1v-0.5c0.6,0,1,0,1.2-0.1c0.1,0,0.2-0.1,0.3-0.2c0.1-0.1,0.1-0.4,0.1-0.7c0-0.1,0-0.8,0-2.2v-0.9
		c-0.1-0.2-0.2-0.4-0.3-0.6c-0.1-0.1-0.4-0.6-0.8-1.3l-2.1-2.9c-0.3-0.4-0.4-0.6-0.6-0.8c-0.1-0.1-0.2-0.1-0.4-0.2
		c-0.2,0-0.4-0.1-1-0.1v-0.5c1.1,0,1.4,0,1.9,0c0.6,0,2,0,3,0v0.5c-0.6,0-1.2,0-1.3,0.1c-0.1,0-0.2,0.1-0.2,0.2
		c0,0.1,0.1,0.4,0.4,0.9l2.4,3.9L50.9,12z"/>
	<path d="M55.8,12.9c0.3-0.7,0.8-1.2,1.5-1.6c0.6-0.4,1.4-0.5,2.3-0.5c0.6,0,1.1,0.1,1.7,0.3c0.5,0.2,0.9,0.4,1.2,0.6
		c0.3,0.3,0.6,0.6,0.8,0.9c0.2,0.3,0.4,0.7,0.6,1.1c0.2,0.7,0.3,1.4,0.3,2.3c0,1-0.2,1.8-0.5,2.5c-0.3,0.7-0.8,1.3-1.4,1.7
		c-0.6,0.4-1.4,0.6-2.3,0.6c-0.6,0-1.2-0.1-1.7-0.3c-0.5-0.2-1-0.5-1.4-0.9c-0.4-0.4-0.8-0.9-1-1.6c-0.2-0.4-0.3-0.8-0.4-1.3
		c-0.1-0.5-0.2-1-0.2-1.5C55.3,14.4,55.5,13.6,55.8,12.9z M54,18.1c0.3,0.7,0.7,1.4,1.2,1.9c0.5,0.5,1.1,0.9,1.9,1.2
		c0.7,0.3,1.5,0.4,2.4,0.4c1.9,0,3.4-0.6,4.6-1.7c1.2-1.2,1.8-2.6,1.8-4.3c0-0.5-0.1-1.1-0.2-1.5c-0.1-0.5-0.3-0.9-0.5-1.2
		c-0.3-0.5-0.6-0.9-1.1-1.3c-0.5-0.4-1.1-0.7-1.8-0.9c-0.7-0.2-1.5-0.4-2.4-0.4c-1,0-1.8,0.1-2.6,0.4c-0.8,0.3-1.4,0.7-2,1.2
		c-0.6,0.6-1,1.2-1.3,1.9c-0.3,0.7-0.4,1.4-0.4,2.3C53.6,16.7,53.8,17.4,54,18.1z"/>
</g>
</svg>
